<mxfile host="app.diagrams.net" modified="2023-06-14T11:09:00.900Z" agent="Mozilla/5.0 (Windows NT 10.0; Win64; x64) AppleWebKit/537.36 (KHTML, like Gecko) Chrome/114.0.0.0 Safari/537.36" etag="MLlU4QRSKi3fDB1DfVoB" version="21.3.8" type="device">
  <diagram name="Trang-1" id="nlsrXPi6w8q5ogPkciGM">
    <mxGraphModel dx="1195" dy="630" grid="1" gridSize="10" guides="1" tooltips="1" connect="1" arrows="1" fold="1" page="1" pageScale="1" pageWidth="827" pageHeight="1169" math="0" shadow="0">
      <root>
        <mxCell id="0" />
        <mxCell id="1" parent="0" />
        <mxCell id="BA5M-CsOHM_7Ew7K0GmK-1" value="" style="rounded=0;whiteSpace=wrap;html=1;" vertex="1" parent="1">
          <mxGeometry x="200" y="40" width="400" height="560" as="geometry" />
        </mxCell>
        <mxCell id="BA5M-CsOHM_7Ew7K0GmK-2" value="admin" style="shape=umlActor;verticalLabelPosition=bottom;verticalAlign=top;html=1;outlineConnect=0;" vertex="1" parent="1">
          <mxGeometry x="90" y="300" width="30" height="60" as="geometry" />
        </mxCell>
        <mxCell id="BA5M-CsOHM_7Ew7K0GmK-3" value="khách hàng" style="shape=umlActor;verticalLabelPosition=bottom;verticalAlign=top;html=1;outlineConnect=0;" vertex="1" parent="1">
          <mxGeometry x="640" y="300" width="30" height="60" as="geometry" />
        </mxCell>
        <mxCell id="BA5M-CsOHM_7Ew7K0GmK-4" value="Tư vấn khách hàng" style="ellipse;whiteSpace=wrap;html=1;" vertex="1" parent="1">
          <mxGeometry x="280" y="490" width="130" height="60" as="geometry" />
        </mxCell>
        <mxCell id="BA5M-CsOHM_7Ew7K0GmK-6" value="Thống kê" style="ellipse;whiteSpace=wrap;html=1;" vertex="1" parent="1">
          <mxGeometry x="280" y="420" width="130" height="60" as="geometry" />
        </mxCell>
        <mxCell id="BA5M-CsOHM_7Ew7K0GmK-7" value="Quản lý giao dịch" style="ellipse;whiteSpace=wrap;html=1;" vertex="1" parent="1">
          <mxGeometry x="280" y="350" width="130" height="60" as="geometry" />
        </mxCell>
        <mxCell id="BA5M-CsOHM_7Ew7K0GmK-8" value="Quản lý sản phẩm" style="ellipse;whiteSpace=wrap;html=1;" vertex="1" parent="1">
          <mxGeometry x="280" y="270" width="130" height="60" as="geometry" />
        </mxCell>
        <mxCell id="BA5M-CsOHM_7Ew7K0GmK-9" value="Tìm kiếm" style="ellipse;whiteSpace=wrap;html=1;" vertex="1" parent="1">
          <mxGeometry x="280" y="200" width="130" height="60" as="geometry" />
        </mxCell>
        <mxCell id="BA5M-CsOHM_7Ew7K0GmK-10" value="Đăng nhập, đăng xuất" style="ellipse;whiteSpace=wrap;html=1;" vertex="1" parent="1">
          <mxGeometry x="284" y="130" width="130" height="60" as="geometry" />
        </mxCell>
        <mxCell id="BA5M-CsOHM_7Ew7K0GmK-11" value="Quản lý tài khoản" style="ellipse;whiteSpace=wrap;html=1;" vertex="1" parent="1">
          <mxGeometry x="280" y="60" width="130" height="60" as="geometry" />
        </mxCell>
        <mxCell id="BA5M-CsOHM_7Ew7K0GmK-13" value="Đăng kí tài khoản" style="ellipse;whiteSpace=wrap;html=1;" vertex="1" parent="1">
          <mxGeometry x="460" y="290" width="130" height="60" as="geometry" />
        </mxCell>
      </root>
    </mxGraphModel>
  </diagram>
</mxfile>
